<svg width="956" height="180" viewBox="0 0 956 180" fill="none" xmlns="http://www.w3.org/2000/svg">
<path d="M17.1987 39.2887L60 14.5774L102.801 39.2887V88.7113L60 113.423L17.1987 88.7113V39.2887Z" fill="#00AFFF" fill-opacity="0.55" stroke="black"/>
<g style="mix-blend-mode:multiply">
<path d="M67.1987 39.2887L110 14.5774L152.801 39.2887V88.7113L110 113.423L67.1987 88.7113V39.2887Z" fill="#00AFFF" fill-opacity="0.55"/>
<path d="M67.1987 39.2887L110 14.5774L152.801 39.2887V88.7113L110 113.423L67.1987 88.7113V39.2887Z" stroke="black"/>
</g>
<g style="mix-blend-mode:multiply">
<path d="M42.1987 80.2887L85 55.5774L127.801 80.2887V129.711L85 154.423L42.1987 129.711V80.2887Z" fill="#00AFFF" fill-opacity="0.55"/>
<path d="M42.1987 80.2887L85 55.5774L127.801 80.2887V129.711L85 154.423L42.1987 129.711V80.2887Z" stroke="black"/>
</g>
<g filter="url(#filter0_d_4_9)">
<path d="M262.081 61.2834C261.655 56.9865 259.826 53.6484 256.595 51.2692C253.363 48.8899 248.977 47.7003 243.438 47.7003C239.673 47.7003 236.495 48.233 233.903 49.2983C231.311 50.3281 229.322 51.7663 227.937 53.6129C226.588 55.4595 225.913 57.5547 225.913 59.8984C225.842 61.8516 226.25 63.5561 227.138 65.0121C228.061 66.468 229.322 67.7287 230.92 68.794C232.518 69.8239 234.365 70.7294 236.46 71.5107C238.555 72.2564 240.792 72.8956 243.171 73.4283L252.972 75.772C257.731 76.8374 262.099 78.2578 266.076 80.0334C270.053 81.8089 273.498 83.9929 276.41 86.5852C279.322 89.1776 281.577 92.2315 283.175 95.7472C284.808 99.2628 285.643 103.293 285.678 107.839C285.643 114.515 283.938 120.303 280.565 125.204C277.227 130.069 272.397 133.851 266.076 136.55C259.791 139.213 252.209 140.545 243.331 140.545C234.524 140.545 226.854 139.195 220.32 136.496C213.821 133.798 208.743 129.803 205.085 124.511C201.463 119.185 199.563 112.597 199.386 104.749H221.705C221.953 108.407 223.001 111.461 224.847 113.911C226.73 116.326 229.233 118.155 232.358 119.398C235.519 120.605 239.088 121.209 243.065 121.209C246.971 121.209 250.362 120.641 253.239 119.504C256.151 118.368 258.406 116.788 260.004 114.763C261.602 112.739 262.401 110.413 262.401 107.786C262.401 105.335 261.673 103.276 260.217 101.607C258.796 99.9375 256.701 98.517 253.931 97.3452C251.197 96.1733 247.841 95.108 243.864 94.1491L231.985 91.1662C222.788 88.929 215.526 85.4311 210.199 80.6726C204.872 75.9141 202.227 69.5043 202.262 61.4432C202.227 54.8381 203.985 49.0675 207.536 44.1314C211.122 39.1953 216.041 35.3423 222.291 32.5724C228.541 29.8026 235.643 28.4176 243.597 28.4176C251.694 28.4176 258.761 29.8026 264.798 32.5724C270.87 35.3423 275.593 39.1953 278.967 44.1314C282.34 49.0675 284.08 54.7848 284.187 61.2834H262.081ZM300.766 139V57.1818H323.458V139H300.766ZM312.165 46.6349C308.792 46.6349 305.898 45.5163 303.483 43.2791C301.104 41.0064 299.914 38.2898 299.914 35.1293C299.914 32.0043 301.104 29.3232 303.483 27.0859C305.898 24.8132 308.792 23.6768 312.165 23.6768C315.539 23.6768 318.415 24.8132 320.795 27.0859C323.21 29.3232 324.417 32.0043 324.417 35.1293C324.417 38.2898 323.21 41.0064 320.795 43.2791C318.415 45.5163 315.539 46.6349 312.165 46.6349ZM360.599 57.1818L375.62 85.7862L391.014 57.1818H414.292L390.588 98.0909L414.931 139H391.76L375.62 110.715L359.746 139H336.309L360.599 98.0909L337.161 57.1818H360.599ZM454.988 140.332C448.773 140.332 443.145 138.734 438.102 135.538C433.095 132.306 429.118 127.565 426.17 121.315C423.258 115.03 421.802 107.324 421.802 98.1974C421.802 88.8224 423.312 81.0277 426.33 74.8132C429.349 68.5632 433.361 63.8935 438.368 60.804C443.411 57.679 448.933 56.1165 454.934 56.1165C459.515 56.1165 463.333 56.8977 466.387 58.4602C469.476 59.9872 471.962 61.9048 473.844 64.2131C475.762 66.4858 477.218 68.723 478.212 70.9247H478.905V29.9091H501.543V139H479.171V125.896H478.212C477.147 128.169 475.638 130.424 473.684 132.661C471.767 134.863 469.263 136.692 466.174 138.148C463.12 139.604 459.391 140.332 454.988 140.332ZM462.179 122.274C465.836 122.274 468.926 121.28 471.447 119.291C474.004 117.267 475.957 114.444 477.307 110.822C478.692 107.2 479.384 102.956 479.384 98.0909C479.384 93.2259 478.709 89 477.36 85.4133C476.01 81.8267 474.057 79.0568 471.501 77.1037C468.944 75.1506 465.836 74.174 462.179 74.174C458.45 74.174 455.307 75.1861 452.751 77.2102C450.194 79.2344 448.258 82.0398 446.944 85.6264C445.631 89.2131 444.974 93.3679 444.974 98.0909C444.974 102.849 445.631 107.058 446.944 110.715C448.294 114.337 450.229 117.178 452.751 119.238C455.307 121.262 458.45 122.274 462.179 122.274ZM557.487 140.598C549.071 140.598 541.826 138.893 535.754 135.484C529.717 132.04 525.065 127.175 521.798 120.889C518.531 114.568 516.897 107.093 516.897 98.4638C516.897 90.0476 518.531 82.6612 521.798 76.3047C525.065 69.9482 529.664 64.9943 535.594 61.4432C541.56 57.892 548.556 56.1165 556.581 56.1165C561.979 56.1165 567.004 56.9865 571.656 58.7266C576.343 60.4311 580.427 63.0057 583.907 66.4503C587.423 69.8949 590.157 74.2273 592.11 79.4474C594.064 84.6321 595.04 90.7045 595.04 97.6648V103.897H525.953V89.8345H573.68C573.68 86.5675 572.97 83.6733 571.549 81.152C570.129 78.6307 568.158 76.6598 565.637 75.2393C563.151 73.7834 560.257 73.0554 556.954 73.0554C553.51 73.0554 550.456 73.8544 547.792 75.4524C545.164 77.0149 543.105 79.1278 541.613 81.7912C540.122 84.419 539.358 87.3487 539.323 90.5803V103.95C539.323 107.999 540.069 111.496 541.56 114.444C543.087 117.391 545.235 119.664 548.005 121.262C550.775 122.86 554.06 123.659 557.86 123.659C560.381 123.659 562.689 123.304 564.784 122.594C566.88 121.884 568.673 120.818 570.164 119.398C571.656 117.977 572.792 116.237 573.574 114.178L594.561 115.562C593.495 120.605 591.311 125.009 588.009 128.773C584.742 132.501 580.516 135.413 575.331 137.509C570.182 139.568 564.234 140.598 557.487 140.598ZM646.709 171.386C639.358 171.386 633.055 170.374 627.799 168.35C622.579 166.362 618.424 163.645 615.335 160.2C612.245 156.756 610.239 152.885 609.316 148.588L630.303 145.765C630.942 147.398 631.954 148.925 633.339 150.346C634.724 151.766 636.553 152.903 638.826 153.755C641.134 154.643 643.939 155.087 647.242 155.087C652.178 155.087 656.244 153.879 659.44 151.464C662.672 149.085 664.287 145.09 664.287 139.479V124.511H663.328C662.334 126.784 660.843 128.933 658.854 130.957C656.865 132.981 654.309 134.632 651.184 135.911C648.059 137.189 644.33 137.828 639.998 137.828C633.854 137.828 628.261 136.408 623.218 133.567C618.211 130.69 614.216 126.305 611.233 120.41C608.286 114.479 606.812 106.987 606.812 97.9311C606.812 88.6626 608.321 80.9212 611.34 74.7067C614.358 68.4922 618.371 63.8402 623.378 60.7507C628.421 57.6612 633.943 56.1165 639.944 56.1165C644.525 56.1165 648.36 56.8977 651.45 58.4602C654.539 59.9872 657.025 61.9048 658.907 64.2131C660.825 66.4858 662.299 68.723 663.328 70.9247H664.181V57.1818H686.713V139.799C686.713 146.759 685.008 152.583 681.599 157.271C678.19 161.958 673.467 165.474 667.43 167.817C661.429 170.197 654.522 171.386 646.709 171.386ZM647.189 120.783C650.846 120.783 653.936 119.877 656.457 118.066C659.014 116.219 660.967 113.592 662.316 110.183C663.701 106.738 664.394 102.619 664.394 97.8246C664.394 93.0305 663.719 88.8757 662.37 85.3601C661.02 81.8089 659.067 79.0568 656.51 77.1037C653.953 75.1506 650.846 74.174 647.189 74.174C643.46 74.174 640.317 75.1861 637.76 77.2102C635.203 79.1989 633.268 81.9687 631.954 85.5199C630.64 89.071 629.983 93.1726 629.983 97.8246C629.983 102.548 630.64 106.631 631.954 110.076C633.304 113.485 635.239 116.131 637.76 118.013C640.317 119.859 643.46 120.783 647.189 120.783ZM704.77 139V57.1818H726.77V71.4574H727.622C729.113 66.3793 731.617 62.544 735.132 59.9517C738.648 57.3239 742.696 56.0099 747.277 56.0099C748.414 56.0099 749.639 56.081 750.953 56.223C752.267 56.3651 753.421 56.5604 754.415 56.8089V76.9439C753.35 76.6243 751.876 76.3402 749.994 76.0916C748.112 75.843 746.39 75.7188 744.827 75.7188C741.489 75.7188 738.506 76.4467 735.878 77.9027C733.286 79.3232 731.226 81.3118 729.699 83.8686C728.208 86.4254 727.462 89.3729 727.462 92.7109V139H704.77ZM799.626 140.598C791.209 140.598 783.965 138.893 777.893 135.484C771.856 132.04 767.204 127.175 763.937 120.889C760.67 114.568 759.036 107.093 759.036 98.4638C759.036 90.0476 760.67 82.6612 763.937 76.3047C767.204 69.9482 771.802 64.9943 777.733 61.4432C783.699 57.892 790.694 56.1165 798.72 56.1165C804.118 56.1165 809.143 56.9865 813.795 58.7266C818.482 60.4311 822.566 63.0057 826.046 66.4503C829.562 69.8949 832.296 74.2273 834.249 79.4474C836.202 84.6321 837.179 90.7045 837.179 97.6648V103.897H768.091V89.8345H815.819C815.819 86.5675 815.108 83.6733 813.688 81.152C812.268 78.6307 810.297 76.6598 807.775 75.2393C805.29 73.7834 802.395 73.0554 799.093 73.0554C795.648 73.0554 792.594 73.8544 789.931 75.4524C787.303 77.0149 785.243 79.1278 783.752 81.7912C782.26 84.419 781.497 87.3487 781.461 90.5803V103.95C781.461 107.999 782.207 111.496 783.699 114.444C785.226 117.391 787.374 119.664 790.144 121.262C792.914 122.86 796.199 123.659 799.998 123.659C802.52 123.659 804.828 123.304 806.923 122.594C809.018 121.884 810.812 120.818 812.303 119.398C813.795 117.977 814.931 116.237 815.712 114.178L836.699 115.562C835.634 120.605 833.45 125.009 830.148 128.773C826.881 132.501 822.655 135.413 817.47 137.509C812.321 139.568 806.373 140.598 799.626 140.598ZM889.274 140.598C880.858 140.598 873.613 138.893 867.541 135.484C861.504 132.04 856.852 127.175 853.585 120.889C850.318 114.568 848.684 107.093 848.684 98.4638C848.684 90.0476 850.318 82.6612 853.585 76.3047C856.852 69.9482 861.451 64.9943 867.381 61.4432C873.347 57.892 880.343 56.1165 888.368 56.1165C893.766 56.1165 898.791 56.9865 903.443 58.7266C908.131 60.4311 912.214 63.0057 915.694 66.4503C919.21 69.8949 921.944 74.2273 923.898 79.4474C925.851 84.6321 926.827 90.7045 926.827 97.6648V103.897H857.74V89.8345H905.467C905.467 86.5675 904.757 83.6733 903.336 81.152C901.916 78.6307 899.945 76.6598 897.424 75.2393C894.938 73.7834 892.044 73.0554 888.741 73.0554C885.297 73.0554 882.243 73.8544 879.579 75.4524C876.952 77.0149 874.892 79.1278 873.4 81.7912C871.909 84.419 871.145 87.3487 871.11 90.5803V103.95C871.11 107.999 871.856 111.496 873.347 114.444C874.874 117.391 877.023 119.664 879.792 121.262C882.562 122.86 885.847 123.659 889.647 123.659C892.168 123.659 894.476 123.304 896.572 122.594C898.667 121.884 900.46 120.818 901.952 119.398C903.443 117.977 904.579 116.237 905.361 114.178L926.348 115.562C925.282 120.605 923.099 125.009 919.796 128.773C916.529 132.501 912.303 135.413 907.118 137.509C901.969 139.568 896.021 140.598 889.274 140.598Z" fill="#333333"/>
</g>
<defs>
<filter id="filter0_d_4_9" x="195.386" y="23.6768" width="735.441" height="155.71" filterUnits="userSpaceOnUse" color-interpolation-filters="sRGB">
<feFlood flood-opacity="0" result="BackgroundImageFix"/>
<feColorMatrix in="SourceAlpha" type="matrix" values="0 0 0 0 0 0 0 0 0 0 0 0 0 0 0 0 0 0 127 0" result="hardAlpha"/>
<feOffset dy="4"/>
<feGaussianBlur stdDeviation="2"/>
<feComposite in2="hardAlpha" operator="out"/>
<feColorMatrix type="matrix" values="0 0 0 0 0 0 0 0 0 0 0 0 0 0 0 0 0 0 0.25 0"/>
<feBlend mode="normal" in2="BackgroundImageFix" result="effect1_dropShadow_4_9"/>
<feBlend mode="normal" in="SourceGraphic" in2="effect1_dropShadow_4_9" result="shape"/>
</filter>
</defs>
</svg>
