<svg width="933" height="181" viewBox="0 0 933 181" fill="none" xmlns="http://www.w3.org/2000/svg">
<path d="M17.1987 47.2887L60 22.5774L102.801 47.2887V96.7113L60 121.423L17.1987 96.7113V47.2887Z" fill="#00AFFF" fill-opacity="0.55" stroke="black"/>
<g style="mix-blend-mode:multiply">
<path d="M67.1987 47.2887L110 22.5774L152.801 47.2887V96.7113L110 121.423L67.1987 96.7113V47.2887Z" fill="#00AFFF" fill-opacity="0.55"/>
<path d="M67.1987 47.2887L110 22.5774L152.801 47.2887V96.7113L110 121.423L67.1987 96.7113V47.2887Z" stroke="black"/>
</g>
<g style="mix-blend-mode:multiply">
<path d="M42.1987 88.2887L85 63.5774L127.801 88.2887V137.711L85 162.423L42.1987 137.711V88.2887Z" fill="#00AFFF" fill-opacity="0.55"/>
<path d="M42.1987 88.2887L85 63.5774L127.801 88.2887V137.711L85 162.423L42.1987 137.711V88.2887Z" stroke="black"/>
</g>
<g filter="url(#filter0_d_4_12)">
<path d="M262.081 62.2834C261.655 57.9865 259.826 54.6484 256.595 52.2692C253.363 49.8899 248.977 48.7003 243.438 48.7003C239.673 48.7003 236.495 49.233 233.903 50.2983C231.311 51.3281 229.322 52.7663 227.937 54.6129C226.588 56.4595 225.913 58.5547 225.913 60.8984C225.842 62.8516 226.25 64.5561 227.138 66.0121C228.061 67.468 229.322 68.7287 230.92 69.794C232.518 70.8239 234.365 71.7294 236.46 72.5107C238.555 73.2564 240.792 73.8956 243.171 74.4283L252.972 76.772C257.731 77.8374 262.099 79.2578 266.076 81.0334C270.053 82.8089 273.498 84.9929 276.41 87.5852C279.322 90.1776 281.577 93.2315 283.175 96.7472C284.808 100.263 285.643 104.293 285.678 108.839C285.643 115.515 283.938 121.303 280.565 126.204C277.227 131.069 272.397 134.851 266.076 137.55C259.791 140.213 252.209 141.545 243.331 141.545C234.524 141.545 226.854 140.195 220.32 137.496C213.821 134.798 208.743 130.803 205.085 125.511C201.463 120.185 199.563 113.597 199.386 105.749H221.705C221.953 109.407 223.001 112.461 224.847 114.911C226.73 117.326 229.233 119.155 232.358 120.398C235.519 121.605 239.088 122.209 243.065 122.209C246.971 122.209 250.362 121.641 253.239 120.504C256.151 119.368 258.406 117.788 260.004 115.763C261.602 113.739 262.401 111.413 262.401 108.786C262.401 106.335 261.673 104.276 260.217 102.607C258.796 100.937 256.701 99.517 253.931 98.3452C251.197 97.1733 247.841 96.108 243.864 95.1491L231.985 92.1662C222.788 89.929 215.526 86.4311 210.199 81.6726C204.872 76.9141 202.227 70.5043 202.262 62.4432C202.227 55.8381 203.985 50.0675 207.536 45.1314C211.122 40.1953 216.041 36.3423 222.291 33.5724C228.541 30.8026 235.643 29.4176 243.597 29.4176C251.694 29.4176 258.761 30.8026 264.798 33.5724C270.87 36.3423 275.593 40.1953 278.967 45.1314C282.34 50.0675 284.08 55.7848 284.187 62.2834H262.081ZM300.766 140V58.1818H323.458V140H300.766ZM312.165 47.6349C308.792 47.6349 305.898 46.5163 303.483 44.2791C301.104 42.0064 299.914 39.2898 299.914 36.1293C299.914 33.0043 301.104 30.3232 303.483 28.0859C305.898 25.8132 308.792 24.6768 312.165 24.6768C315.539 24.6768 318.415 25.8132 320.795 28.0859C323.21 30.3232 324.417 33.0043 324.417 36.1293C324.417 39.2898 323.21 42.0064 320.795 44.2791C318.415 46.5163 315.539 47.6349 312.165 47.6349ZM360.599 58.1818L375.62 86.7862L391.014 58.1818H414.292L390.588 99.0909L414.931 140H391.76L375.62 111.715L359.746 140H336.309L360.599 99.0909L337.161 58.1818H360.599ZM454.988 141.332C448.773 141.332 443.145 139.734 438.102 136.538C433.095 133.306 429.118 128.565 426.17 122.315C423.258 116.03 421.802 108.324 421.802 99.1974C421.802 89.8224 423.312 82.0277 426.33 75.8132C429.349 69.5632 433.361 64.8935 438.368 61.804C443.411 58.679 448.933 57.1165 454.934 57.1165C459.515 57.1165 463.333 57.8977 466.387 59.4602C469.476 60.9872 471.962 62.9048 473.844 65.2131C475.762 67.4858 477.218 69.723 478.212 71.9247H478.905V30.9091H501.543V140H479.171V126.896H478.212C477.147 129.169 475.638 131.424 473.684 133.661C471.767 135.863 469.263 137.692 466.174 139.148C463.12 140.604 459.391 141.332 454.988 141.332ZM462.179 123.274C465.836 123.274 468.926 122.28 471.447 120.291C474.004 118.267 475.957 115.444 477.307 111.822C478.692 108.2 479.384 103.956 479.384 99.0909C479.384 94.2259 478.709 90 477.36 86.4133C476.01 82.8267 474.057 80.0568 471.501 78.1037C468.944 76.1506 465.836 75.174 462.179 75.174C458.45 75.174 455.307 76.1861 452.751 78.2102C450.194 80.2344 448.258 83.0398 446.944 86.6264C445.631 90.2131 444.974 94.3679 444.974 99.0909C444.974 103.849 445.631 108.058 446.944 111.715C448.294 115.337 450.229 118.178 452.751 120.238C455.307 122.262 458.45 123.274 462.179 123.274ZM557.487 141.598C549.071 141.598 541.826 139.893 535.754 136.484C529.717 133.04 525.065 128.175 521.798 121.889C518.531 115.568 516.897 108.093 516.897 99.4638C516.897 91.0476 518.531 83.6612 521.798 77.3047C525.065 70.9482 529.664 65.9943 535.594 62.4432C541.56 58.892 548.556 57.1165 556.581 57.1165C561.979 57.1165 567.004 57.9865 571.656 59.7266C576.343 61.4311 580.427 64.0057 583.907 67.4503C587.423 70.8949 590.157 75.2273 592.11 80.4474C594.064 85.6321 595.04 91.7045 595.04 98.6648V104.897H525.953V90.8345H573.68C573.68 87.5675 572.97 84.6733 571.549 82.152C570.129 79.6307 568.158 77.6598 565.637 76.2393C563.151 74.7834 560.257 74.0554 556.954 74.0554C553.51 74.0554 550.456 74.8544 547.792 76.4524C545.164 78.0149 543.105 80.1278 541.613 82.7912C540.122 85.419 539.358 88.3487 539.323 91.5803V104.95C539.323 108.999 540.069 112.496 541.56 115.444C543.087 118.391 545.235 120.664 548.005 122.262C550.775 123.86 554.06 124.659 557.86 124.659C560.381 124.659 562.689 124.304 564.784 123.594C566.88 122.884 568.673 121.818 570.164 120.398C571.656 118.977 572.792 117.237 573.574 115.178L594.561 116.562C593.495 121.605 591.311 126.009 588.009 129.773C584.742 133.501 580.516 136.413 575.331 138.509C570.182 140.568 564.234 141.598 557.487 141.598ZM646.709 172.386C639.358 172.386 633.055 171.374 627.799 169.35C622.579 167.362 618.424 164.645 615.335 161.2C612.245 157.756 610.239 153.885 609.316 149.588L630.303 146.765C630.942 148.398 631.954 149.925 633.339 151.346C634.724 152.766 636.553 153.903 638.826 154.755C641.134 155.643 643.939 156.087 647.242 156.087C652.178 156.087 656.244 154.879 659.44 152.464C662.672 150.085 664.287 146.09 664.287 140.479V125.511H663.328C662.334 127.784 660.843 129.933 658.854 131.957C656.865 133.981 654.309 135.632 651.184 136.911C648.059 138.189 644.33 138.828 639.998 138.828C633.854 138.828 628.261 137.408 623.218 134.567C618.211 131.69 614.216 127.305 611.233 121.41C608.286 115.479 606.812 107.987 606.812 98.9311C606.812 89.6626 608.321 81.9212 611.34 75.7067C614.358 69.4922 618.371 64.8402 623.378 61.7507C628.421 58.6612 633.943 57.1165 639.944 57.1165C644.525 57.1165 648.36 57.8977 651.45 59.4602C654.539 60.9872 657.025 62.9048 658.907 65.2131C660.825 67.4858 662.299 69.723 663.328 71.9247H664.181V58.1818H686.713V140.799C686.713 147.759 685.008 153.583 681.599 158.271C678.19 162.958 673.467 166.474 667.43 168.817C661.429 171.197 654.522 172.386 646.709 172.386ZM647.189 121.783C650.846 121.783 653.936 120.877 656.457 119.066C659.014 117.219 660.967 114.592 662.316 111.183C663.701 107.738 664.394 103.619 664.394 98.8246C664.394 94.0305 663.719 89.8757 662.37 86.3601C661.02 82.8089 659.067 80.0568 656.51 78.1037C653.953 76.1506 650.846 75.174 647.189 75.174C643.46 75.174 640.317 76.1861 637.76 78.2102C635.203 80.1989 633.268 82.9687 631.954 86.5199C630.64 90.071 629.983 94.1726 629.983 98.8246C629.983 103.548 630.64 107.631 631.954 111.076C633.304 114.485 635.239 117.131 637.76 119.013C640.317 120.859 643.46 121.783 647.189 121.783ZM704.77 140V58.1818H726.77V72.4574H727.622C729.113 67.3793 731.617 63.544 735.132 60.9517C738.648 58.3239 742.696 57.0099 747.277 57.0099C748.414 57.0099 749.639 57.081 750.953 57.223C752.267 57.3651 753.421 57.5604 754.415 57.8089V77.9439C753.35 77.6243 751.876 77.3402 749.994 77.0916C748.112 76.843 746.39 76.7188 744.827 76.7188C741.489 76.7188 738.506 77.4467 735.878 78.9027C733.286 80.3232 731.226 82.3118 729.699 84.8686C728.208 87.4254 727.462 90.3729 727.462 93.7109V140H704.77ZM799.626 141.598C791.209 141.598 783.965 139.893 777.893 136.484C771.856 133.04 767.204 128.175 763.937 121.889C760.67 115.568 759.036 108.093 759.036 99.4638C759.036 91.0476 760.67 83.6612 763.937 77.3047C767.204 70.9482 771.802 65.9943 777.733 62.4432C783.699 58.892 790.694 57.1165 798.72 57.1165C804.118 57.1165 809.143 57.9865 813.795 59.7266C818.482 61.4311 822.566 64.0057 826.046 67.4503C829.562 70.8949 832.296 75.2273 834.249 80.4474C836.202 85.6321 837.179 91.7045 837.179 98.6648V104.897H768.091V90.8345H815.819C815.819 87.5675 815.108 84.6733 813.688 82.152C812.268 79.6307 810.297 77.6598 807.775 76.2393C805.29 74.7834 802.395 74.0554 799.093 74.0554C795.648 74.0554 792.594 74.8544 789.931 76.4524C787.303 78.0149 785.243 80.1278 783.752 82.7912C782.26 85.419 781.497 88.3487 781.461 91.5803V104.95C781.461 108.999 782.207 112.496 783.699 115.444C785.226 118.391 787.374 120.664 790.144 122.262C792.914 123.86 796.199 124.659 799.998 124.659C802.52 124.659 804.828 124.304 806.923 123.594C809.018 122.884 810.812 121.818 812.303 120.398C813.795 118.977 814.931 117.237 815.712 115.178L836.699 116.562C835.634 121.605 833.45 126.009 830.148 129.773C826.881 133.501 822.655 136.413 817.47 138.509C812.321 140.568 806.373 141.598 799.626 141.598ZM889.274 141.598C880.858 141.598 873.613 139.893 867.541 136.484C861.504 133.04 856.852 128.175 853.585 121.889C850.318 115.568 848.684 108.093 848.684 99.4638C848.684 91.0476 850.318 83.6612 853.585 77.3047C856.852 70.9482 861.451 65.9943 867.381 62.4432C873.347 58.892 880.343 57.1165 888.368 57.1165C893.766 57.1165 898.791 57.9865 903.443 59.7266C908.131 61.4311 912.214 64.0057 915.694 67.4503C919.21 70.8949 921.944 75.2273 923.898 80.4474C925.851 85.6321 926.827 91.7045 926.827 98.6648V104.897H857.74V90.8345H905.467C905.467 87.5675 904.757 84.6733 903.336 82.152C901.916 79.6307 899.945 77.6598 897.424 76.2393C894.938 74.7834 892.044 74.0554 888.741 74.0554C885.297 74.0554 882.243 74.8544 879.579 76.4524C876.952 78.0149 874.892 80.1278 873.4 82.7912C871.909 85.419 871.145 88.3487 871.11 91.5803V104.95C871.11 108.999 871.856 112.496 873.347 115.444C874.874 118.391 877.023 120.664 879.792 122.262C882.562 123.86 885.847 124.659 889.647 124.659C892.168 124.659 894.476 124.304 896.572 123.594C898.667 122.884 900.46 121.818 901.952 120.398C903.443 118.977 904.579 117.237 905.361 115.178L926.348 116.562C925.282 121.605 923.099 126.009 919.796 129.773C916.529 133.501 912.303 136.413 907.118 138.509C901.969 140.568 896.021 141.598 889.274 141.598Z" fill="#333333"/>
</g>
<defs>
<filter id="filter0_d_4_12" x="195.386" y="24.6768" width="735.441" height="155.71" filterUnits="userSpaceOnUse" color-interpolation-filters="sRGB">
<feFlood flood-opacity="0" result="BackgroundImageFix"/>
<feColorMatrix in="SourceAlpha" type="matrix" values="0 0 0 0 0 0 0 0 0 0 0 0 0 0 0 0 0 0 127 0" result="hardAlpha"/>
<feOffset dy="4"/>
<feGaussianBlur stdDeviation="2"/>
<feComposite in2="hardAlpha" operator="out"/>
<feColorMatrix type="matrix" values="0 0 0 0 0 0 0 0 0 0 0 0 0 0 0 0 0 0 0.25 0"/>
<feBlend mode="normal" in2="BackgroundImageFix" result="effect1_dropShadow_4_12"/>
<feBlend mode="normal" in="SourceGraphic" in2="effect1_dropShadow_4_12" result="shape"/>
</filter>
</defs>
</svg>
