<?xml version="1.0" encoding="UTF-8"?>
<svg width="646px" height="96px" viewBox="0 0 646 96" xmlns="http://www.w3.org/2000/svg" xmlns:xlink="http://www.w3.org/1999/xlink" version="1.1">
 <!-- Generated by Pixelmator Pro 1.5.5 -->
 <g id="group">
  <defs>
   <linearGradient id="linear-gradient" gradientUnits="userSpaceOnUse" x1="10.81" y1="98.29" x2="98.89" y2="-1.01">
    <stop offset="0.08" stop-color="#9945ff" stop-opacity="1"/>
    <stop offset="0.3" stop-color="#8752f3" stop-opacity="1"/>
    <stop offset="0.5" stop-color="#5497d5" stop-opacity="1"/>
    <stop offset="0.6" stop-color="#43b4ca" stop-opacity="1"/>
    <stop offset="0.72" stop-color="#28e0b9" stop-opacity="1"/>
    <stop offset="0.97" stop-color="#19fb9b" stop-opacity="1"/>
   </linearGradient>
  </defs>
  <path id="Path" d="M108.53 75.69 L90.81 94.69 C90.427 95.103 89.962 95.432 89.446 95.657 88.93 95.883 88.373 96 87.81 96 L3.81 96 C3.409 96 3.017 95.883 2.682 95.663 2.347 95.444 2.083 95.131 1.923 94.764 1.763 94.397 1.713 93.991 1.78 93.596 1.847 93.201 2.028 92.834 2.3 92.54 L20 73.54 C20.383 73.127 20.847 72.798 21.363 72.573 21.88 72.347 22.437 72.231 23 72.23 L107 72.23 C107.404 72.222 107.802 72.333 108.143 72.55 108.484 72.767 108.754 73.081 108.917 73.45 109.081 73.82 109.131 74.23 109.062 74.629 108.993 75.027 108.808 75.397 108.53 75.69 Z M90.81 37.42 C90.425 37.009 89.961 36.681 89.445 36.456 88.929 36.231 88.373 36.113 87.81 36.11 L3.81 36.11 C3.409 36.11 3.017 36.227 2.682 36.447 2.347 36.666 2.083 36.979 1.923 37.346 1.763 37.713 1.713 38.119 1.78 38.514 1.847 38.909 2.028 39.276 2.3 39.57 L20 58.58 C20.385 58.991 20.849 59.319 21.365 59.544 21.881 59.769 22.437 59.887 23 59.89 L107 59.89 C107.4 59.888 107.79 59.769 108.124 59.549 108.458 59.329 108.72 59.016 108.879 58.649 109.038 58.283 109.087 57.877 109.019 57.483 108.952 57.089 108.772 56.723 108.5 56.43 Z M3.81 23.77 L87.81 23.77 C88.373 23.769 88.93 23.653 89.446 23.427 89.962 23.202 90.427 22.873 90.81 22.46 L108.53 3.46 C108.808 3.167 108.993 2.797 109.062 2.399 109.131 2 109.081 1.59 108.917 1.22 108.754 0.851 108.484 0.537 108.143 0.32 107.802 0.103 107.404 -0.008 107 0 L23 0 C22.437 0.001 21.88 0.117 21.363 0.343 20.847 0.568 20.383 0.897 20 1.31 L2.3 20.31 C2.028 20.604 1.847 20.971 1.78 21.366 1.713 21.761 1.763 22.167 1.923 22.534 2.083 22.901 2.347 23.214 2.682 23.433 3.017 23.653 3.409 23.77 3.81 23.77 Z" fill-opacity="1" fill="url(#linear-gradient)" stroke="none"/>
  <path id="Path-1" d="M210.94 40.6 L166 40.6 166 25.8 222.62 25.8 222.62 11 165.85 11 C163.91 10.99 161.988 11.361 160.192 12.094 158.396 12.826 156.761 13.906 155.383 15.27 154.004 16.634 152.907 18.256 152.155 20.044 151.403 21.832 151.01 23.751 151 25.69 L151 40.69 C151.008 42.632 151.398 44.552 152.149 46.343 152.9 48.133 153.996 49.758 155.375 51.124 156.755 52.49 158.39 53.571 160.187 54.305 161.984 55.039 163.909 55.411 165.85 55.4 L210.85 55.4 210.85 70.2 152.07 70.2 152.07 85 210.94 85 C212.88 85.011 214.802 84.639 216.598 83.907 218.394 83.174 220.028 82.095 221.407 80.731 222.786 79.367 223.883 77.745 224.635 75.956 225.387 74.168 225.78 72.25 225.79 70.31 L225.79 55.31 C225.782 53.369 225.392 51.448 224.641 49.658 223.89 47.868 222.794 46.243 221.415 44.877 220.035 43.511 218.4 42.43 216.603 41.696 214.806 40.962 212.881 40.59 210.94 40.6 Z" fill="#212121" fill-opacity="1" stroke="none"/>
  <path id="Path-2" d="M298 11 L252.89 11 C250.947 10.984 249.02 11.352 247.219 12.082 245.419 12.812 243.78 13.89 242.397 15.255 241.013 16.62 239.913 18.244 239.159 20.034 238.404 21.825 238.01 23.747 238 25.69 L238 70.31 C238.01 72.253 238.404 74.175 239.159 75.965 239.913 77.756 241.013 79.38 242.397 80.745 243.78 82.109 245.419 83.188 247.219 83.918 249.02 84.648 250.947 85.016 252.89 85 L298 85 C299.94 85.01 301.862 84.639 303.658 83.906 305.454 83.174 307.089 82.095 308.467 80.731 309.846 79.366 310.943 77.744 311.695 75.956 312.447 74.168 312.84 72.25 312.85 70.31 L312.85 25.69 C312.84 23.75 312.447 21.832 311.695 20.044 310.943 18.256 309.846 16.633 308.467 15.269 307.089 13.905 305.454 12.826 303.658 12.094 301.862 11.361 299.94 10.989 298 11 Z M297.89 70.2 L253 70.2 253 25.8 297.87 25.8 Z" fill="#212121" fill-opacity="1" stroke="none"/>
  <path id="Path-3" d="M456 11 L412 11 C410.06 10.99 408.138 11.361 406.342 12.094 404.546 12.826 402.911 13.905 401.533 15.269 400.154 16.634 399.057 18.256 398.305 20.044 397.553 21.832 397.16 23.75 397.15 25.69 L397.15 85 412.15 85 412.15 60.69 455.95 60.69 455.95 85 470.95 85 470.95 25.69 C470.94 23.742 470.544 21.815 469.786 20.021 469.027 18.226 467.922 16.599 466.532 15.234 465.143 13.868 463.497 12.791 461.689 12.065 459.881 11.338 457.948 10.976 456 11 Z M455.89 45.89 L412.09 45.89 412.09 25.8 455.89 25.8 Z" fill="#212121" fill-opacity="1" stroke="none"/>
  <path id="Path-4" d="M631.15 11 L587.15 11 C585.21 10.99 583.288 11.361 581.492 12.094 579.696 12.826 578.062 13.905 576.683 15.27 575.304 16.634 574.207 18.256 573.455 20.044 572.703 21.832 572.31 23.75 572.3 25.69 L572.3 85 587.3 85 587.3 60.69 631 60.69 631 85 646 85 646 25.69 C645.99 23.75 645.597 21.832 644.845 20.044 644.093 18.256 642.996 16.634 641.617 15.27 640.238 13.905 638.604 12.826 636.808 12.094 635.012 11.361 633.09 10.99 631.15 11 Z M631 45.89 L587.2 45.89 587.2 25.8 631 25.8 Z" fill="#212121" fill-opacity="1" stroke="none"/>
  <path id="Path-5" d="M544 70.2 L538 70.2 516.55 17.2 C515.815 15.372 514.55 13.805 512.918 12.7 511.286 11.595 509.361 11.003 507.39 11 L494.08 11 C492.786 10.994 491.504 11.242 490.307 11.731 489.109 12.22 488.02 12.94 487.1 13.85 486.181 14.76 485.45 15.842 484.949 17.035 484.448 18.227 484.187 19.507 484.18 20.8 L484.18 85 499.18 85 499.18 25.8 505.18 25.8 526.62 78.8 C527.367 80.625 528.642 82.186 530.281 83.283 531.919 84.38 533.848 84.964 535.82 84.96 L549.13 84.96 C550.424 84.967 551.706 84.719 552.903 84.23 554.101 83.741 555.19 83.021 556.11 82.111 557.029 81.201 557.76 80.118 558.261 78.926 558.762 77.733 559.023 76.454 559.03 75.16 L559.03 11 544 11 Z" fill="#212121" fill-opacity="1" stroke="none"/>
  <path id="Path-6" d="M341.1 11 L326.1 11 326.1 70.31 C326.11 72.254 326.505 74.177 327.26 75.968 328.015 77.759 329.116 79.384 330.5 80.748 331.884 82.113 333.525 83.191 335.326 83.921 337.128 84.651 339.056 85.017 341 85 L386 85 386 70.2 341.1 70.2 Z" fill="#212121" fill-opacity="1" stroke="none"/>
 </g>
</svg>
